<?xml version="1.0" standalone="yes"?>

<svg version="1.1" viewBox="0.0 0.0 960.0 540.0" fill="none" stroke="none" stroke-linecap="square" stroke-miterlimit="10" xmlns="http://www.w3.org/2000/svg" xmlns:xlink="http://www.w3.org/1999/xlink"><clipPath id="p.0"><path d="m0 0l960.0 0l0 540.0l-960.0 0l0 -540.0z" clip-rule="nonzero"></path></clipPath><g clip-path="url(#p.0)"><path fill="#ffffff" d="m0 0l960.0 0l0 540.0l-960.0 0z" fill-rule="nonzero"></path><path fill="#000000" fill-opacity="0.0" d="m424.80954 344.4785c-23.54898 -16.295837 -83.736176 -12.659576 -86.98328 14.307312c-5.169037 42.928192 106.63336 44.838654 139.79706 14.307312c15.541748 -14.308075 -32.39215 -34.33972 -54.364532 -34.33972" fill-rule="evenodd"></path><path stroke="#666666" stroke-width="4.0" stroke-linejoin="round" stroke-linecap="butt" d="m424.80954 344.4785c-23.54898 -16.295837 -83.736176 -12.659576 -86.98328 14.307312c-5.169037 42.928192 106.63336 44.838654 139.79706 14.307312c15.541748 -14.308075 -32.39215 -34.33972 -54.364532 -34.33972" fill-rule="evenodd"></path><path fill="#000000" fill-opacity="0.0" d="m399.95514 408.96744c-11.809204 16.333557 -12.890961 39.066742 -27.954712 52.943573" fill-rule="evenodd"></path><path stroke="#666666" stroke-width="4.0" stroke-linejoin="round" stroke-linecap="butt" d="m399.95514 408.96744c-11.809204 16.333557 -12.890961 39.066742 -27.954712 52.943573" fill-rule="evenodd"></path><path fill="#000000" fill-opacity="0.0" d="m406.16992 408.87634c0 -20.12976 3.4212036 41.916443 15.536926 58.66867" fill-rule="evenodd"></path><path stroke="#666666" stroke-width="4.0" stroke-linejoin="round" stroke-linecap="butt" d="m406.16992 408.87634c0 -20.12976 3.4212036 41.916443 15.536926 58.66867" fill-rule="evenodd"></path><path fill="#000000" fill-opacity="0.0" d="m364.23492 470.4075c2.4745178 -6.84729 15.462524 -2.8571167 23.29654 -2.8571167c22.318787 0 45.623352 -2.217987 66.7941 4.291107" fill-rule="evenodd"></path><path stroke="#666666" stroke-width="4.0" stroke-linejoin="round" stroke-linecap="butt" d="m364.23492 470.4075c2.4745178 -6.84729 15.462524 -2.8571167 23.29654 -2.8571167c22.318787 0 45.623352 -2.217987 66.7941 4.291107" fill-rule="evenodd"></path><path fill="#000000" fill-opacity="0.0" d="m458.9845 471.84058c0 -4.9107056 -12.532898 10.681519 -7.7655334 12.878754c5.653137 2.6054993 12.40329 -8.662842 10.872925 -14.312744" fill-rule="evenodd"></path><path stroke="#666666" stroke-width="4.0" stroke-linejoin="round" stroke-linecap="butt" d="m458.9845 471.84058c0 -4.9107056 -12.532898 10.681519 -7.7655334 12.878754c5.653137 2.6054993 12.40329 -8.662842 10.872925 -14.312744" fill-rule="evenodd"></path><path fill="#000000" fill-opacity="0.0" d="m362.67715 468.97836c-7.5480347 -1.3885498 -23.098969 9.878876 -17.087708 14.307312c5.147003 3.7917175 17.6344 -7.826294 13.980316 -12.878754" fill-rule="evenodd"></path><path stroke="#666666" stroke-width="4.0" stroke-linejoin="round" stroke-linecap="butt" d="m362.67715 468.97836c-7.5480347 -1.3885498 -23.098969 9.878876 -17.087708 14.307312c5.147003 3.7917175 17.6344 -7.826294 13.980316 -12.878754" fill-rule="evenodd"></path><path fill="#000000" fill-opacity="0.0" d="m382.87537 394.5511c-62.292236 -11.50296 -77.53082 -109.20303 -62.135956 -165.9844" fill-rule="evenodd"></path><path stroke="#666666" stroke-width="4.0" stroke-linejoin="round" stroke-linecap="butt" d="m382.87537 394.5511c-62.292236 -11.50296 -77.53082 -109.20303 -62.135956 -165.9844" fill-rule="evenodd"></path><path fill="#000000" fill-opacity="0.0" d="m322.29395 231.42397c0 -7.0413513 16.396118 -16.12941 20.189178 -10.016205c8.6185 13.890213 4.2435303 37.227005 -9.316254 47.223892c-4.574707 3.3726807 -10.572449 -6.3308105 -12.429565 -11.450195" fill-rule="evenodd"></path><path stroke="#666666" stroke-width="4.0" stroke-linejoin="round" stroke-linecap="butt" d="m322.29395 231.42397c0 -7.0413513 16.396118 -16.12941 20.189178 -10.016205c8.6185 13.890213 4.2435303 37.227005 -9.316254 47.223892c-4.574707 3.3726807 -10.572449 -6.3308105 -12.429565 -11.450195" fill-rule="evenodd"></path><path fill="#000000" fill-opacity="0.0" d="m412.3847 330.1667c29.173706 3.8476257 74.559814 5.493164E-4 83.875885 25.757538c12.019104 33.230255 12.429535 69.42685 12.429535 104.453156" fill-rule="evenodd"></path><path stroke="#666666" stroke-width="4.0" stroke-linejoin="round" stroke-linecap="butt" d="m412.3847 330.1667c29.173706 3.8476257 74.559814 5.493164E-4 83.875885 25.757538c12.019104 33.230255 12.429535 69.42685 12.429535 104.453156" fill-rule="evenodd"></path><path fill="#000000" fill-opacity="0.0" d="m420.15024 328.738c20.70636 6.358307 47.89386 6.532898 60.579315 22.894989c20.541748 26.495392 -1.8477173 66.40732 9.316254 97.2995" fill-rule="evenodd"></path><path stroke="#666666" stroke-width="4.0" stroke-linejoin="round" stroke-linecap="butt" d="m420.15024 328.738c20.70636 6.358307 47.89386 6.532898 60.579315 22.894989c20.541748 26.495392 -1.8477173 66.40732 9.316254 97.2995" fill-rule="evenodd"></path><path fill="#000000" fill-opacity="0.0" d="m423.2552 334.44086c-53.86966 -33.041656 -35.914856 -129.2606 0 -178.85693" fill-rule="evenodd"></path><path stroke="#666666" stroke-width="4.0" stroke-linejoin="round" stroke-linecap="butt" d="m423.2552 334.44086c-53.86966 -33.041656 -35.914856 -129.2606 0 -178.85693" fill-rule="evenodd"></path><path fill="#000000" fill-opacity="0.0" d="m452.76645 91.1844c-15.669922 -7.2176514 -41.907867 11.112846 -43.491302 27.185951c-1.9898071 20.198006 21.540314 44.236946 43.491302 45.789726c16.625 1.1760254 40.252228 -5.321121 45.047913 -20.032333c5.956909 -18.273407 -17.636353 -39.74936 -37.28247 -45.78972" fill-rule="evenodd"></path><path stroke="#666666" stroke-width="4.0" stroke-linejoin="round" stroke-linecap="butt" d="m452.76645 91.1844c-15.669922 -7.2176514 -41.907867 11.112846 -43.491302 27.185951c-1.9898071 20.198006 21.540314 44.236946 43.491302 45.789726c16.625 1.1760254 40.252228 -5.321121 45.047913 -20.032333c5.956909 -18.273407 -17.636353 -39.74936 -37.28247 -45.78972" fill-rule="evenodd"></path><path fill="#000000" fill-opacity="0.0" d="m486.49277 303.5669c11.206543 -6.8867493 26.942413 2.252594 40.38394 1.4285583c39.2666 -2.407257 78.69678 -1.4285583 118.05029 -1.4285583" fill-rule="evenodd"></path><path stroke="#666666" stroke-width="4.0" stroke-linejoin="round" stroke-linecap="butt" d="m486.49277 303.5669c11.206543 -6.8867493 26.942413 2.252594 40.38394 1.4285583c39.2666 -2.407257 78.69678 -1.4285583 118.05029 -1.4285583" fill-rule="evenodd"></path><path fill="#000000" fill-opacity="0.0" d="m556.3883 315.01505c-9.00531 24.88736 0 52.467163 0 78.700745c0 25.440765 -9.316162 50.39746 -9.316162 75.83823" fill-rule="evenodd"></path><path stroke="#666666" stroke-width="4.0" stroke-linejoin="round" stroke-linecap="butt" d="m556.3883 315.01505c-9.00531 24.88736 0 52.467163 0 78.700745c0 25.440765 -9.316162 50.39746 -9.316162 75.83823" fill-rule="evenodd"></path><path fill="#000000" fill-opacity="0.0" d="m601.4367 310.7235c-14.292297 13.149597 -1.5566406 37.197784 -1.5566406 55.80591c0 37.250916 -6.2088013 74.35538 -6.2088013 111.60632" fill-rule="evenodd"></path><path stroke="#666666" stroke-width="4.0" stroke-linejoin="round" stroke-linecap="butt" d="m601.4367 310.7235c-14.292297 13.149597 -1.5566406 37.197784 -1.5566406 55.80591c0 37.250916 -6.2088013 74.35538 -6.2088013 111.60632" fill-rule="evenodd"></path><path fill="#000000" fill-opacity="0.0" d="m489.59848 300.7066c-10.374695 -23.884125 54.570465 -17.154053 82.32449 -14.307251c24.725952 2.5361938 69.47656 -8.379974 73.00244 14.307251" fill-rule="evenodd"></path><path stroke="#666666" stroke-width="4.0" stroke-linejoin="round" stroke-linecap="butt" d="m489.59848 300.7066c-10.374695 -23.884125 54.570465 -17.154053 82.32449 -14.307251c24.725952 2.5361938 69.47656 -8.379974 73.00244 14.307251" fill-rule="evenodd"></path><path fill="#000000" fill-opacity="0.0" d="m602.9875 263.50067c-0.880249 5.6855164 -1.5507202 11.426758 -1.5507202 17.1698" fill-rule="evenodd"></path><path stroke="#666666" stroke-width="4.0" stroke-linejoin="round" stroke-linecap="butt" d="m602.9875 263.50067c-0.880249 5.6855164 -1.5507202 11.426758 -1.5507202 17.1698" fill-rule="evenodd"></path><path fill="#000000" fill-opacity="0.0" d="m516.00415 478.1521c14.283203 -13.157867 40.379272 -1.4285583 60.578796 -1.4285583c16.601074 0 39.741394 -15.094177 49.706055 -2.8625183c10.730286 13.171478 -35.045776 10.403168 -52.813416 8.587585c-18.128174 -1.8523865 -49.948303 10.577423 -54.364075 -5.725067" fill-rule="evenodd"></path><path stroke="#666666" stroke-width="4.0" stroke-linejoin="round" stroke-linecap="butt" d="m516.00415 478.1521c14.283203 -13.157867 40.379272 -1.4285583 60.578796 -1.4285583c16.601074 0 39.741394 -15.094177 49.706055 -2.8625183c10.730286 13.171478 -35.045776 10.403168 -52.813416 8.587585c-18.128174 -1.8523865 -49.948303 10.577423 -54.364075 -5.725067" fill-rule="evenodd"></path><path fill="#000000" fill-opacity="0.0" d="m505.53485 284.22708c0 -5.821686 10.684265 -6.2547913 16.335876 -8.85733c4.7436523 -2.1844482 12.04541 -10.569 14.417053 -6.198456c4.816101 8.875427 -17.657043 11.910675 -27.871002 15.055786" fill-rule="evenodd"></path><path stroke="#666666" stroke-width="4.0" stroke-linejoin="round" stroke-linecap="butt" d="m505.53485 284.22708c0 -5.821686 10.684265 -6.2547913 16.335876 -8.85733c4.7436523 -2.1844482 12.04541 -10.569 14.417053 -6.198456c4.816101 8.875427 -17.657043 11.910675 -27.871002 15.055786" fill-rule="evenodd"></path><path fill="#000000" fill-opacity="0.0" d="m531.4831 279.80035c1.8641357 3.432129 8.590942 7.141876 11.535095 4.427002c2.4494019 -2.258728 -7.0997314 -8.17041 -8.649475 -5.3144226" fill-rule="evenodd"></path><path stroke="#666666" stroke-width="4.0" stroke-linejoin="round" stroke-linecap="butt" d="m531.4831 279.80035c1.8641357 3.432129 8.590942 7.141876 11.535095 4.427002c2.4494019 -2.258728 -7.0997314 -8.17041 -8.649475 -5.3144226" fill-rule="evenodd"></path><path fill="#000000" fill-opacity="0.0" d="m601.6515 265.03705c-6.794739 -2.2600403 14.882935 -7.365143 15.893982 -14.456589c3.3337402 -23.38324 -1.4429321 -47.22505 -1.4429321 -70.844925c0 -9.09314 -6.321045 -27.200394 -14.45105 -23.13382c-5.668274 2.835205 -1.8475342 12.5448 -2.8912964 18.797943c-4.602112 27.570938 -5.4918823 56.450592 0 83.85803" fill-rule="evenodd"></path><path stroke="#666666" stroke-width="4.0" stroke-linejoin="round" stroke-linecap="butt" d="m601.6515 265.03705c-6.794739 -2.2600403 14.882935 -7.365143 15.893982 -14.456589c3.3337402 -23.38324 -1.4429321 -47.22505 -1.4429321 -70.844925c0 -9.09314 -6.321045 -27.200394 -14.45105 -23.13382c-5.668274 2.835205 -1.8475342 12.5448 -2.8912964 18.797943c-4.602112 27.570938 -5.4918823 56.450592 0 83.85803" fill-rule="evenodd"></path><path fill="#000000" fill-opacity="0.0" d="m603.09467 262.14963c4.819092 7.226898 11.708069 13.442322 14.45105 21.684875" fill-rule="evenodd"></path><path stroke="#666666" stroke-width="4.0" stroke-linejoin="round" stroke-linecap="butt" d="m603.09467 262.14963c4.819092 7.226898 11.708069 13.442322 14.45105 21.684875" fill-rule="evenodd"></path><path fill="#000000" fill-opacity="0.0" d="m423.47165 166.6008c0 16.183228 16.247498 28.812973 28.67978 39.173218c14.711151 12.259293 27.845459 26.343842 42.666687 38.46982c10.215149 8.357544 29.394287 8.466278 33.577393 20.984253" fill-rule="evenodd"></path><path stroke="#595959" stroke-width="4.0" stroke-linejoin="round" stroke-linecap="butt" d="m423.47165 166.6008c0 16.183228 16.247498 28.812973 28.67978 39.173218c14.711151 12.259293 27.845459 26.343842 42.666687 38.46982c10.215149 8.357544 29.394287 8.466278 33.577393 20.984253" fill-rule="evenodd"></path><path fill="#000000" fill-opacity="0.0" d="m543.6325 261.7064c9.092285 -16.59375 8.814148 -36.857574 11.497192 -55.587845" fill-rule="evenodd"></path><path stroke="#595959" stroke-width="2.0" stroke-linejoin="round" stroke-linecap="butt" stroke-dasharray="8.0,6.0" d="m543.6325 261.7064c9.092285 -16.59375 8.814148 -36.857574 11.497192 -55.587845" fill-rule="evenodd"></path><path fill="#000000" fill-opacity="0.0" d="m561.5584 54.57477l44.125977 7.496063l-24.37793 143.55907l-44.125977 -7.496063z" fill-rule="nonzero"></path><path fill="#cccccc" d="m573.1602 76.03785q0.20025635 0.03401947 0.3126831 0.21161652q0.13049316 0.16481018 0.109313965 0.38308716q-0.033996582 0.20026398 -0.21685791 0.343544q-0.16479492 0.13049316 -0.36505127 0.096473694q-0.66760254 -0.081718445 -1.3224487 -0.14541626q-0.65478516 -0.063690186 -1.1710205 -0.10383606q-0.5161743 -0.040138245 -0.8782959 -0.054115295q-0.36218262 -0.013977051 -0.40838623 -0.021827698q-0.055480957 0.5135803 -0.11651611 1.1530151q-0.045654297 0.6420517 -0.09387207 1.2995071q-0.03289795 0.6600723 -0.07849121 1.302124q-0.043029785 0.62664795 -0.08050537 1.1274414q-0.03491211 0.4853897 -0.056396484 0.7987137q-0.003479004 0.3005371 -0.0061035156 0.31594086q-0.033996582 0.20025635 -0.1987915 0.3307495q-0.16479492 0.13049316 -0.4293213 0.10140991q-0.20025635 -0.03401947 -0.31536865 -0.19621277q-0.11767578 -0.14678192 -0.09906006 -0.34966278q-0.0049438477 -0.06423187 0.022094727 -0.50341034q0.02960205 -0.45457458 0.07788086 -1.11203q0.048217773 -0.65745544 0.10461426 -1.4561691q0.056396484 -0.7987137 0.12298584 -1.564003q0.06915283 -0.78069305 0.13018799 -1.4201202q0.06365967 -0.6548462 0.12384033 -1.0091476q0.09411621 -0.5545578 0.19439697 -1.4250641q0.10028076 -0.87049866 0.1749878 -1.7770386q0.0927124 -0.9193344 0.13891602 -1.7514725q0.048828125 -0.8475418 0.040161133 -1.3561859q0.03137207 -0.1848526 0.17816162 -0.3025589q0.14935303 -0.13311005 0.4165039 -0.11943817q0.4005127 0.06803894 0.43011475 0.45345306q0.15203857 -0.1485138 0.39093018 -0.15547943q0.030822754 0.0052337646 0.43914795 0.027061462q0.4263916 0.009033203 1.0684204 0.05471039q0.64208984 0.045677185 1.420105 0.13030243q0.7807007 0.069229126 1.5355225 0.19744873q1.4942017 0.2538376 2.3513184 0.5262375q0.8725586 0.27500916 0.9161377 0.29827118q0.38482666 0.16046143 0.28045654 0.68159485q-0.12963867 0.3900528 -0.6687622 0.2984619q-0.35925293 -0.124420166 -0.82373047 -0.2825699q-0.39526367 -0.098846436 -0.9727783 -0.2444992q-0.56207275 -0.14303589 -1.25531 -0.2607956q-0.7085571 -0.12037659 -1.473877 -0.18698883q-0.7626343 -0.08200836 -1.4072876 -0.1122818q-0.6420288 -0.045669556 -1.0684204 -0.05471039q-0.40838623 -0.021820068 -0.45458984 -0.029670715q-0.15405273 -0.026168823 -0.2923584 -0.14476776q-0.009643555 0.61647797 -0.065979004 1.4151917q-0.056396484 0.7987137 -0.14361572 1.592186q-0.071777344 0.7960968 -0.16131592 1.5099411q-0.07409668 0.71645355 -0.14996338 1.1631851q0.15667725 0.010765076 0.5341797 0.02735138q0.37756348 0.016593933 0.87835693 0.054122925q0.5161743 0.040138245 1.1221924 0.11138916q0.60601807 0.071250916 1.2454224 0.13232422l0.0154418945 0.0026168823zm10.204346 0.4814453q0.7489624 0.3491211 1.2506104 0.94150543q0.51971436 0.5795975 0.81292725 1.2792206q0.29589844 0.68421936 0.38104248 1.3960342q0.10321045 0.699028 0.0037841797 1.2843933q-0.015686035 0.092430115 -0.028747559 0.16944885q-0.013122559 0.07702637 -0.04156494 0.15142822l-0.05987549 0.25926208q-0.12731934 0.46968842 -0.3112793 0.9931412q-0.184021 0.5234604 -0.58099365 0.99487305q-0.39440918 0.4560089 -1.0556641 0.80329895q-0.66119385 0.34729004 -1.7122192 0.46987915q-0.53448486 0.06768799 -0.96087646 0.058654785q-0.4263916 -0.0090408325 -0.78063965 -0.069229126q-0.5545654 -0.09420776 -1.0701904 -0.32444q-0.5028076 -0.21220398 -1.2390137 -0.54330444q-0.6618042 -0.3026123 -1.086731 -0.78687286q-0.4095459 -0.48163605 -0.64434814 -0.9653015q-0.21948242 -0.48104858 -0.315979 -0.8461151q-0.078430176 -0.3778534 -0.078186035 -0.47289276q0.028808594 -0.16944885 0.15753174 -0.2743683q0.14678955 -0.1177063 0.4371338 -0.14762878q0.16949463 0.028785706 0.29241943 0.14476776q0.122924805 0.115974426 0.14300537 0.27787018l0.065979004 0.2647934q0.05316162 0.24676514 0.2319336 0.5941086q0.17871094 0.34734344 0.4807129 0.71562195q0.30462646 0.35287476 0.8048096 0.5804825q0.6591797 0.31802368 1.1030273 0.5043564q0.44641113 0.17093658 0.89312744 0.24682617q0.5853882 0.09944153 1.4564209 0.009681702q0.80688477 -0.08482361 1.2904663 -0.3196411q0.4862671 -0.25022125 0.7647095 -0.5832901q0.29388428 -0.33045197 0.42871094 -0.75131226q0.15026855 -0.4182434 0.28771973 -0.8544998l0.077941895 -0.27204895l0.028747559 -0.16944885q0.06542969 -0.38511658 3.0517578E-4 -0.9350357q-0.049682617 -0.54730225 -0.2741089 -1.0925827q-0.20892334 -0.5426636 -0.6158447 -1.039711q-0.39154053 -0.4944229 -0.98150635 -0.7531433q-0.42321777 -0.21453094 -0.87750244 -0.33924866q-0.45166016 -0.14012146 -0.9291992 -0.22124481q-0.970459 -0.16486359 -1.84906 -0.123939514q-0.8760376 0.025520325 -1.418396 0.13942719q-0.051452637 0.022956848 -0.17468262 0.0020217896q-0.046203613 -0.007850647 -0.107788086 -0.018318176q-0.046203613 -0.007850647 -0.1875 -0.01599884q-0.20025635 -0.03401947 -0.3307495 -0.19882965q-0.11248779 -0.17759705 -0.10925293 -0.38308716q0.06072998 -0.5443878 0.119140625 -1.1684189q0.061035156 -0.6394348 0.10144043 -1.250679q0.055786133 -0.6086197 0.085754395 -1.1582489q0.029907227 -0.5496216 0.018310547 -0.94781494q0.02355957 -0.13864136 0.08807373 -0.23862457q0.06713867 -0.11538696 0.18572998 -0.25373077q0.028747559 -0.16944885 0.16015625 -0.28977203q0.14672852 -0.11769867 0.3548584 -0.12989807q0.046203613 0.007850647 0.43914795 0.027061462q0.41101074 0.006416321 1.0222168 0.04685974q0.61120605 0.04043579 1.3584595 0.1198349q0.7498779 0.06398773 1.473877 0.1869812q1.4172363 0.24075317 2.2435303 0.5079193q0.84173584 0.2697754 0.87249756 0.27500916q0.17700195 0.07762146 0.25610352 0.2653885q0.08166504 0.17236328 0.02178955 0.43161774q-0.16046143 0.38481903 -0.66619873 0.28305817q-0.015380859 -0.0026168823 -0.7954712 -0.26193237q-0.78009033 -0.2593155 -2.1048584 -0.48435974q-0.5545654 -0.09420776 -1.1477661 -0.14743805q-0.5751953 -0.06601715 -1.1068115 -0.10877228q-0.5315552 -0.042762756 -0.95532227 -0.06719971q-0.4237671 -0.02444458 -0.6754761 -0.035507202q0.0040283203 0.34936523 -0.010192871 0.80656433q-0.01159668 0.44179535 -0.051757812 0.95799255q-0.040100098 0.5161972 -0.088012695 1.0786057q-0.04534912 0.5470123 -0.10614014 1.0914001q0.61938477 -0.10081482 1.4593506 -0.10076141q0.8580322 -0.0127334595 1.7976685 0.14689636q0.5237427 0.08896637 1.0370483 0.23956299q0.5286865 0.15320587 1.041687 0.39884186z" fill-rule="nonzero"></path><path fill="#b7b7b7" d="m568.80743 101.670906q0.20025635 0.03401947 0.3126831 0.21161652q0.1305542 0.16480255 0.109313965 0.38308716q-0.033996582 0.20025635 -0.21685791 0.34353638q-0.16479492 0.13049316 -0.36505127 0.096473694q-0.66760254 -0.081718445 -1.3224487 -0.14540863q-0.65478516 -0.063697815 -1.1709595 -0.10384369q-0.51623535 -0.040138245 -0.87835693 -0.054115295q-0.36218262 -0.013969421 -0.40838623 -0.021820068q-0.055480957 0.5135803 -0.11651611 1.1530151q-0.045654297 0.6420517 -0.09387207 1.2995071q-0.03289795 0.6600723 -0.07849121 1.3021164q-0.043029785 0.62664795 -0.08050537 1.1274414q-0.03491211 0.4853897 -0.056396484 0.7987137q-0.003479004 0.3005371 -0.0061035156 0.31594086q-0.033996582 0.20025635 -0.1987915 0.3307495q-0.16479492 0.13049316 -0.4293213 0.10140991q-0.20025635 -0.03401947 -0.31536865 -0.19620514q-0.11767578 -0.14678955 -0.09906006 -0.34966278q-0.0049438477 -0.0642395 0.022094727 -0.50341034q0.02960205 -0.4545822 0.07788086 -1.1120377q0.048217773 -0.65745544 0.10461426 -1.4561691q0.056396484 -0.7987137 0.12298584 -1.564003q0.06915283 -0.7806854 0.13018799 -1.4201202q0.06365967 -0.65483856 0.12384033 -1.00914q0.09411621 -0.5545654 0.19439697 -1.4250641q0.10028076 -0.8705063 0.1749878 -1.7770462q0.0927124 -0.9193344 0.13891602 -1.7514725q0.048828125 -0.8475418 0.040161133 -1.3561859q0.03137207 -0.1848526 0.17816162 -0.3025589q0.14935303 -0.13311005 0.4165039 -0.11943054q0.4005127 0.06803894 0.43011475 0.45344543q0.15203857 -0.1485138 0.39093018 -0.1554718q0.030822754 0.0052337646 0.43914795 0.027053833q0.4263916 0.0090408325 1.0684204 0.05471039q0.64208984 0.045677185 1.420105 0.13030243q0.7807007 0.069229126 1.5355225 0.19745636q1.4942017 0.25382996 2.3513184 0.52622986q0.8725586 0.27501678 0.9161377 0.29827118q0.38482666 0.16046143 0.28045654 0.6816025q-0.12963867 0.39004517 -0.6687622 0.29845428q-0.35925293 -0.124420166 -0.82373047 -0.2825699q-0.39526367 -0.098846436 -0.9727783 -0.2444992q-0.56207275 -0.14303589 -1.25531 -0.2607956q-0.7085571 -0.12037659 -1.473877 -0.1869812q-0.7626343 -0.08201599 -1.4072876 -0.1122818q-0.6420288 -0.045677185 -1.0684204 -0.05471039q-0.40838623 -0.021827698 -0.45458984 -0.029678345q-0.15405273 -0.026168823 -0.2923584 -0.14476776q-0.009643555 0.61647797 -0.065979004 1.4151917q-0.056396484 0.7987137 -0.14361572 1.5921936q-0.071777344 0.7960968 -0.16131592 1.5099335q-0.07409668 0.71645355 -0.14996338 1.1631851q0.15667725 0.010765076 0.5342407 0.027359009q0.37750244 0.016586304 0.8782959 0.054115295q0.5161743 0.040145874 1.1221924 0.11138916q0.60601807 0.071250916 1.2454224 0.13233185l0.0154418945 0.0026168823zm10.204346 0.48143768q0.7489624 0.3491211 1.2506104 0.94150543q0.51971436 0.5795975 0.81292725 1.2792206q0.29589844 0.68421936 0.38104248 1.3960342q0.10321045 0.699028 0.0037841797 1.2844009q-0.015686035 0.092422485 -0.028747559 0.16944885q-0.013122559 0.07701874 -0.04156494 0.15142822l-0.05987549 0.25925446q-0.12731934 0.46968842 -0.3112793 0.9931488q-0.184021 0.52345276 -0.58099365 0.9948654q-0.39440918 0.45601654 -1.0556641 0.80329895q-0.66119385 0.34729004 -1.7122192 0.46987915q-0.53448486 0.06768799 -0.96087646 0.058654785q-0.4263916 -0.0090408325 -0.78063965 -0.069229126q-0.5545654 -0.09420776 -1.0701904 -0.32443237q-0.5028076 -0.21221161 -1.2390137 -0.5433121q-0.6618042 -0.3026123 -1.086731 -0.78687286q-0.4095459 -0.48163605 -0.64434814 -0.9653015q-0.21948242 -0.48104095 -0.315979 -0.8461075q-0.078430176 -0.37786102 -0.078186035 -0.4729004q0.028808594 -0.16944885 0.15753174 -0.2743683q0.14678955 -0.1177063 0.4371338 -0.14762115q0.16949463 0.028785706 0.29241943 0.14476013q0.122924805 0.115982056 0.14300537 0.2778778l0.065979004 0.26478577q0.05316162 0.24677277 0.2319336 0.5941086q0.17871094 0.34734344 0.4807129 0.71562195q0.30462646 0.35287476 0.8048096 0.5804901q0.6591797 0.31801605 1.1030273 0.50434875q0.44641113 0.17093658 0.89312744 0.24682617q0.5853882 0.09944153 1.4564209 0.009681702q0.80688477 -0.08481598 1.2904663 -0.31963348q0.4862671 -0.25022125 0.7647095 -0.5832977q0.29388428 -0.33045197 0.42871094 -0.75131226q0.15026855 -0.41823578 0.28778076 -0.8544998l0.07788086 -0.27204895l0.028747559 -0.16944885q0.06542969 -0.38510895 3.0517578E-4 -0.9350357q-0.049682617 -0.54730225 -0.2741089 -1.0925827q-0.20892334 -0.5426636 -0.6158447 -1.0397034q-0.3914795 -0.49443054 -0.98150635 -0.75315094q-0.42321777 -0.21453094 -0.87750244 -0.33924866q-0.45166016 -0.14012146 -0.9291992 -0.22124481q-0.970459 -0.16486359 -1.84906 -0.123931885q-0.8760376 0.025520325 -1.418396 0.13941956q-0.051452637 0.022956848 -0.17468262 0.0020217896q-0.046203613 -0.007850647 -0.107788086 -0.018318176q-0.046203613 -0.007850647 -0.1875 -0.01599884q-0.20025635 -0.03401947 -0.3307495 -0.19882202q-0.11248779 -0.17759705 -0.10925293 -0.3830948q0.06072998 -0.5443878 0.119140625 -1.1684189q0.061035156 -0.6394348 0.10144043 -1.2506714q0.055786133 -0.6086273 0.085754395 -1.1582489q0.029907227 -0.5496292 0.018310547 -0.9478226q0.02355957 -0.13864136 0.08807373 -0.23862457q0.06713867 -0.11537933 0.18572998 -0.25372314q0.028747559 -0.16945648 0.16015625 -0.28977203q0.14672852 -0.1177063 0.3548584 -0.1299057q0.046203613 0.007850647 0.43914795 0.027061462q0.41101074 0.00642395 1.0222168 0.04685974q0.61120605 0.04044342 1.3584595 0.1198349q0.7498779 0.06399536 1.473877 0.18698883q1.4172363 0.24074554 2.2435303 0.5079117q0.84173584 0.26978302 0.87249756 0.27501678q0.17700195 0.07761383 0.25610352 0.26538086q0.08166504 0.17236328 0.02178955 0.43161774q-0.16046143 0.38481903 -0.66619873 0.28305817q-0.015380859 -0.0026168823 -0.7954712 -0.26193237q-0.78009033 -0.25930786 -2.1048584 -0.48435974q-0.5545654 -0.09420776 -1.1477661 -0.14743805q-0.5751953 -0.06600952 -1.1068115 -0.10877228q-0.5315552 -0.042762756 -0.95532227 -0.06719971q-0.4237671 -0.02444458 -0.6754761 -0.035507202q0.0040283203 0.34936523 -0.010192871 0.80656433q-0.01159668 0.44179535 -0.051757812 0.95799255q-0.040100098 0.5161972 -0.088012695 1.0786133q-0.04534912 0.5470047 -0.10614014 1.0913925q0.61938477 -0.10081482 1.4593506 -0.10076141q0.8580322 -0.0127334595 1.7976685 0.14689636q0.5237427 0.088974 1.0370483 0.23956299q0.5286865 0.15320587 1.041687 0.39884186z" fill-rule="nonzero"></path><path fill="#999999" d="m564.45465 127.303955q0.20025635 0.03401947 0.3126831 0.21161652q0.1305542 0.16481018 0.109313965 0.38308716q-0.033996582 0.20026398 -0.21685791 0.343544q-0.16479492 0.13049316 -0.36505127 0.096466064q-0.66760254 -0.081710815 -1.3224487 -0.14541626q-0.65478516 -0.063690186 -1.1709595 -0.10383606q-0.51623535 -0.040130615 -0.87835693 -0.054107666q-0.36218262 -0.013977051 -0.40838623 -0.021835327q-0.055480957 0.5135803 -0.11651611 1.1530151q-0.045654297 0.6420593 -0.09387207 1.2995148q-0.03289795 0.6600647 -0.07849121 1.302124q-0.043029785 0.62664795 -0.08050537 1.1274414q-0.03491211 0.48538208 -0.056396484 0.79870605q-0.003479004 0.3005371 -0.0061035156 0.3159485q-0.033996582 0.20025635 -0.1987915 0.3307495q-0.16479492 0.13049316 -0.4293213 0.10140991q-0.20025635 -0.0340271 -0.31536865 -0.19621277q-0.11767578 -0.14678955 -0.09906006 -0.3496704q-0.0049438477 -0.06422424 0.022094727 -0.5034027q0.02960205 -0.45457458 0.07788086 -1.11203q0.048217773 -0.65745544 0.10461426 -1.4561768q0.056396484 -0.79870605 0.12298584 -1.5639954q0.06915283 -0.7807007 0.13018799 -1.4201279q0.06365967 -0.65483856 0.12384033 -1.00914q0.09411621 -0.5545654 0.19439697 -1.4250641q0.10028076 -0.87049866 0.1749878 -1.7770462q0.0927124 -0.9193344 0.13891602 -1.7514725q0.048828125 -0.8475418 0.040161133 -1.3561859q0.03137207 -0.1848526 0.17816162 -0.3025589q0.14935303 -0.13311005 0.4165039 -0.11943054q0.4005127 0.06803894 0.43011475 0.45344543q0.15203857 -0.1485138 0.39093018 -0.1554718q0.030822754 0.0052337646 0.43914795 0.027053833q0.4263916 0.0090408325 1.0684204 0.05471039q0.64208984 0.045677185 1.420105 0.13031006q0.7807007 0.0692215 1.5355225 0.19744873q1.4942017 0.2538376 2.3513184 0.52622986q0.8725586 0.27501678 0.9161377 0.29827118q0.38482666 0.16046143 0.28045654 0.6816025q-0.12963867 0.39004517 -0.6687622 0.29845428q-0.35925293 -0.124420166 -0.82373047 -0.28256226q-0.39526367 -0.098854065 -0.9727783 -0.24450684q-0.56207275 -0.14303589 -1.25531 -0.2607956q-0.7085571 -0.12037659 -1.473877 -0.1869812q-0.7626343 -0.08201599 -1.4072876 -0.1122818q-0.6420288 -0.045677185 -1.0684204 -0.05471039q-0.40838623 -0.021827698 -0.45458984 -0.029678345q-0.15405273 -0.026168823 -0.2923584 -0.14476013q-0.009643555 0.61647034 -0.065979004 1.415184q-0.056396484 0.7987137 -0.14361572 1.5921936q-0.071777344 0.7960968 -0.16131592 1.5099335q-0.07409668 0.7164612 -0.14996338 1.1631851q0.15667725 0.010765076 0.5342407 0.027359009q0.37750244 0.016593933 0.8782959 0.054115295q0.5161743 0.040145874 1.1221924 0.11139679q0.60601807 0.071243286 1.2454224 0.13232422l0.0154418945 0.0026168823zm10.204346 0.48143768q0.7489624 0.34912872 1.2506104 0.94150543q0.51971436 0.5796051 0.81292725 1.2792206q0.29589844 0.68421936 0.38104248 1.3960419q0.10321045 0.6990204 0.0037841797 1.2843933q-0.015686035 0.092422485 -0.028747559 0.16944885q-0.013061523 0.07702637 -0.04156494 0.15142822l-0.05987549 0.25926208q-0.12731934 0.4696808 -0.3112793 0.99313354q-0.184021 0.523468 -0.58099365 0.99487305q-0.39440918 0.4560089 -1.0556641 0.80329895q-0.66119385 0.34729004 -1.7122192 0.46987915q-0.53448486 0.06768799 -0.96087646 0.058654785q-0.4263916 -0.009033203 -0.78063965 -0.069229126q-0.5545654 -0.09420776 -1.0701904 -0.32443237q-0.5028076 -0.21220398 -1.2390137 -0.5433197q-0.6618042 -0.3026123 -1.086731 -0.78686523q-0.4095459 -0.48162842 -0.64434814 -0.9653015q-0.21948242 -0.48104858 -0.315979 -0.8461151q-0.078430176 -0.3778534 -0.078186035 -0.47288513q0.028808594 -0.16944885 0.15753174 -0.2743683q0.14678955 -0.1177063 0.4371338 -0.14762878q0.16949463 0.028778076 0.29241943 0.14476013q0.122924805 0.115982056 0.14300537 0.2778778l0.065979004 0.26478577q0.05316162 0.24676514 0.2319336 0.5941162q0.17871094 0.34733582 0.4807129 0.71562195q0.30462646 0.35287476 0.8048096 0.58047485q0.6591797 0.31802368 1.1030273 0.504364q0.44641113 0.17092896 0.89312744 0.24682617q0.5853882 0.09942627 1.4564209 0.009674072q0.80688477 -0.08482361 1.2904663 -0.3196411q0.4862671 -0.25021362 0.7647095 -0.5832825q0.29388428 -0.3304596 0.42871094 -0.75131226q0.15026855 -0.4182434 0.28778076 -0.85450745l0.07788086 -0.27204895l0.028747559 -0.16944885q0.06542969 -0.38511658 3.0517578E-4 -0.9350281q-0.049682617 -0.54730225 -0.2741089 -1.0925903q-0.20892334 -0.5426636 -0.6158447 -1.0397034q-0.3914795 -0.49443054 -0.98150635 -0.7531433q-0.42321777 -0.21453857 -0.87750244 -0.33924866q-0.45166016 -0.14012146 -0.9291992 -0.22125244q-0.970459 -0.16486359 -1.84906 -0.123931885q-0.8760376 0.025512695 -1.418396 0.13941956q-0.051452637 0.022964478 -0.17468262 0.002029419q-0.046203613 -0.007858276 -0.107788086 -0.018325806q-0.046203613 -0.007843018 -0.1875 -0.015991211q-0.20025635 -0.0340271 -0.3307495 -0.19882965q-0.11248779 -0.17759705 -0.10925293 -0.38308716q0.06072998 -0.54439545 0.119140625 -1.1684265q0.061035156 -0.6394272 0.10144043 -1.2506714q0.055786133 -0.6086273 0.085754395 -1.1582489q0.029907227 -0.5496292 0.018310547 -0.9478226q0.02355957 -0.13864136 0.08807373 -0.23861694q0.06713867 -0.11538696 0.18572998 -0.25373077q0.028747559 -0.16944885 0.16015625 -0.28977203q0.14672852 -0.1177063 0.3548584 -0.12989807q0.046203613 0.007850647 0.43914795 0.027053833q0.41101074 0.00642395 1.0222168 0.04685974q0.61120605 0.04044342 1.3585205 0.1198349q0.7498169 0.06399536 1.4738159 0.18698883q1.4172363 0.24075317 2.2435303 0.5079117q0.84173584 0.26978302 0.87249756 0.27501678q0.17700195 0.07761383 0.25610352 0.26538086q0.08166504 0.17236328 0.02178955 0.43162537q-0.16046143 0.3848114 -0.66619873 0.28305054q-0.015380859 -0.0026168823 -0.7954712 -0.26192474q-0.78009033 -0.2593155 -2.1048584 -0.48436737q-0.5545654 -0.09420776 -1.1477661 -0.14743042q-0.5751953 -0.06601715 -1.1068115 -0.10877991q-0.5315552 -0.042755127 -0.95532227 -0.06719971q-0.4237671 -0.02444458 -0.6754761 -0.035499573q0.0040283203 0.34936523 -0.010192871 0.8065567q-0.01159668 0.44179535 -0.051757812 0.95799255q-0.040100098 0.5161972 -0.088012695 1.0786133q-0.04534912 0.5470047 -0.10614014 1.0914001q0.61938477 -0.10082245 1.4593506 -0.10076904q0.8580322 -0.0127334595 1.7976685 0.14689636q0.5237427 0.088974 1.0370483 0.23956299q0.5286865 0.15320587 1.041687 0.39884186z" fill-rule="nonzero"></path><path fill="#666666" d="m560.10187 152.93701q0.20025635 0.03401184 0.3126831 0.21160889q0.1305542 0.16481018 0.109313965 0.38308716q-0.033996582 0.20025635 -0.21685791 0.34353638q-0.16479492 0.13049316 -0.36505127 0.09648132q-0.66760254 -0.081726074 -1.3223877 -0.14541626q-0.6548462 -0.063690186 -1.1710205 -0.10383606q-0.51623535 -0.040145874 -0.87835693 -0.054122925q-0.36218262 -0.013961792 -0.40838623 -0.021820068q-0.055480957 0.5135803 -0.11651611 1.1530151q-0.045654297 0.64204407 -0.09387207 1.2995148q-0.03289795 0.6600647 -0.07849121 1.3021088q-0.043029785 0.62664795 -0.08050537 1.1274414q-0.03491211 0.48539734 -0.056396484 0.7987213q-0.003479004 0.3005371 -0.0061035156 0.31593323q-0.033996582 0.20025635 -0.1987915 0.3307495q-0.16479492 0.13049316 -0.4293213 0.10140991q-0.20025635 -0.03401184 -0.31530762 -0.19619751q-0.11773682 -0.14678955 -0.099121094 -0.3496704q-0.0049438477 -0.0642395 0.022094727 -0.5034027q0.02960205 -0.45458984 0.07788086 -1.1120453q0.048217773 -0.65745544 0.10461426 -1.4561615q0.056396484 -0.7987213 0.12298584 -1.5640106q0.06915283 -0.7806854 0.13018799 -1.4201202q0.06365967 -0.65483093 0.12384033 -1.00914q0.09411621 -0.5545654 0.19439697 -1.4250641q0.10028076 -0.87049866 0.1749878 -1.7770386q0.0927124 -0.91934204 0.13891602 -1.7514801q0.048828125 -0.8475342 0.040161133 -1.3561859q0.03137207 -0.18484497 0.17816162 -0.30255127q0.14935303 -0.13311768 0.4165039 -0.11943054q0.4005127 0.06803894 0.43011475 0.45344543q0.15203857 -0.1485138 0.39093018 -0.15548706q0.030822754 0.0052337646 0.43914795 0.027069092q0.4263916 0.009033203 1.0684204 0.05470276q0.64208984 0.045684814 1.420105 0.13031006q0.7807007 0.069229126 1.5355225 0.19744873q1.4942017 0.25382996 2.3513184 0.52622986q0.8725586 0.2750244 0.9161377 0.2982788q0.38482666 0.16046143 0.28045654 0.68159485q-0.12963867 0.39004517 -0.6687622 0.2984619q-0.35925293 -0.124420166 -0.82373047 -0.2825775q-0.39526367 -0.098846436 -0.9727783 -0.24449158q-0.56207275 -0.14303589 -1.25531 -0.26080322q-0.7085571 -0.12037659 -1.473877 -0.1869812q-0.7626343 -0.08201599 -1.4072876 -0.11227417q-0.6420288 -0.045684814 -1.0684204 -0.054718018q-0.40838623 -0.021820068 -0.45458984 -0.029678345q-0.15405273 -0.026168823 -0.2923584 -0.14476013q-0.009643555 0.61647034 -0.065979004 1.4151917q-0.056396484 0.79870605 -0.14361572 1.5921936q-0.071777344 0.7960968 -0.16131592 1.5099335q-0.07409668 0.7164459 -0.14996338 1.1631775q0.15667725 0.010772705 0.5342407 0.027359009q0.37750244 0.016586304 0.8782959 0.054122925q0.5161743 0.040145874 1.1221924 0.11138916q0.60601807 0.071243286 1.2454224 0.13232422l0.0154418945 0.0026245117zm10.204346 0.48143005q0.7489624 0.3491211 1.2506104 0.94151306q0.51971436 0.57958984 0.81292725 1.2792206q0.29589844 0.68421936 0.38104248 1.3960266q0.10321045 0.69903564 0.0037841797 1.2844086q-0.015686035 0.092422485 -0.028747559 0.16944885q-0.013061523 0.07701111 -0.04156494 0.15142822l-0.05987549 0.25924683q-0.12731934 0.46969604 -0.3112793 0.9931488q-0.184021 0.52345276 -0.58099365 0.99487305q-0.39440918 0.4560089 -1.0556641 0.80329895q-0.66119385 0.34729004 -1.7122192 0.46987915q-0.53448486 0.06768799 -0.96087646 0.058654785q-0.4263916 -0.009048462 -0.78063965 -0.069229126q-0.5545654 -0.09420776 -1.0701904 -0.32443237q-0.5028076 -0.21221924 -1.2390137 -0.5433197q-0.6618042 -0.3026123 -1.086731 -0.78686523q-0.4095459 -0.48164368 -0.64434814 -0.9653015q-0.21948242 -0.48104858 -0.315979 -0.8461151q-0.078430176 -0.3778534 -0.078186035 -0.4729004q0.028808594 -0.16944885 0.15753174 -0.2743683q0.14678955 -0.1177063 0.4371338 -0.14761353q0.16949463 0.028778076 0.29241943 0.14476013q0.122924805 0.115982056 0.14300537 0.2778778l0.065979004 0.26478577q0.05316162 0.24676514 0.2319336 0.59410095q0.17871094 0.34735107 0.4807129 0.71562195q0.30462646 0.35287476 0.8048096 0.5804901q0.6591797 0.31802368 1.1030273 0.50434875q0.44641113 0.17094421 0.89312744 0.24682617q0.5853882 0.09944153 1.4564209 0.009689331q0.80688477 -0.08482361 1.2904663 -0.3196411q0.4862671 -0.25021362 0.7647095 -0.5832977q0.29388428 -0.33044434 0.42871094 -0.75131226q0.15026855 -0.41822815 0.28778076 -0.8544922l0.07788086 -0.27204895l0.028747559 -0.16944885q0.06542969 -0.38511658 3.0517578E-4 -0.93504333q-0.049682617 -0.54730225 -0.2741089 -1.0925751q-0.20892334 -0.5426636 -0.6158447 -1.0397034q-0.3914795 -0.49443054 -0.98150635 -0.75315857q-0.42321777 -0.21452332 -0.87750244 -0.33924866q-0.45166016 -0.14012146 -0.9291992 -0.22123718q-0.970459 -0.16487122 -1.84906 -0.12394714q-0.8760376 0.025527954 -1.418396 0.13943481q-0.051452637 0.022949219 -0.17468262 0.0020141602q-0.046203613 -0.007843018 -0.107788086 -0.018310547q-0.046203613 -0.007858276 -0.1875 -0.01600647q-0.20025635 -0.03401184 -0.3307495 -0.19882202q-0.11248779 -0.17759705 -0.10925293 -0.38308716q0.06072998 -0.5443878 0.119140625 -1.1684265q0.061035156 -0.6394348 0.10144043 -1.2506714q0.055786133 -0.6086273 0.085754395 -1.1582489q0.029907227 -0.5496216 0.018310547 -0.94781494q0.02355957 -0.13864136 0.08807373 -0.2386322q0.06713867 -0.11538696 0.18572998 -0.25372314q0.028747559 -0.16944885 0.16015625 -0.2897644q0.14672852 -0.1177063 0.3548584 -0.12991333q0.046203613 0.007858276 0.43914795 0.027069092q0.41101074 0.00642395 1.0222168 0.04685974q0.6112671 0.04043579 1.3585205 0.11982727q0.7498169 0.06399536 1.4738159 0.18699646q1.4172363 0.24073792 2.2435303 0.50790405q0.84173584 0.26979065 0.87249756 0.2750244q0.17706299 0.0776062 0.25610352 0.26538086q0.08166504 0.17236328 0.02178955 0.4316101q-0.16046143 0.38482666 -0.66619873 0.2830658q-0.015380859 -0.0026245117 -0.7954712 -0.26193237q-0.78009033 -0.25930786 -2.1048584 -0.48435974q-0.5545654 -0.09420776 -1.1477661 -0.14744568q-0.5751953 -0.06600952 -1.1068115 -0.10876465q-0.5315552 -0.042770386 -0.95532227 -0.06719971q-0.4237671 -0.02444458 -0.6754761 -0.035507202q0.0040893555 0.34936523 -0.010192871 0.80656433q-0.01159668 0.44178772 -0.051757812 0.95799255q-0.040100098 0.5161896 -0.088012695 1.0786133q-0.04534912 0.5469971 -0.10614014 1.0913849q0.61938477 -0.10081482 1.4593506 -0.100753784q0.8580322 -0.012741089 1.7976685 0.14689636q0.5237427 0.088974 1.0370483 0.23956299q0.5286865 0.15319824 1.041687 0.39883423z" fill-rule="nonzero"></path><path fill="#666666" d="m555.7491 178.57005q0.20025635 0.0340271 0.3126831 0.21162415q0.1305542 0.16481018 0.109313965 0.38308716q-0.033996582 0.20025635 -0.21685791 0.34353638q-0.16479492 0.13049316 -0.36505127 0.096466064q-0.66760254 -0.081710815 -1.3223877 -0.145401q-0.6548462 -0.063705444 -1.1710205 -0.10383606q-0.51623535 -0.040145874 -0.87835693 -0.054122925q-0.36218262 -0.013977051 -0.40838623 -0.021820068q-0.055480957 0.5135803 -0.11651611 1.1530151q-0.045654297 0.64204407 -0.09387207 1.2994995q-0.03289795 0.66007996 -0.07849121 1.302124q-0.043029785 0.62664795 -0.08050537 1.1274414q-0.03491211 0.48538208 -0.056396484 0.79870605q-0.003479004 0.3005371 -0.0061035156 0.3159485q-0.033996582 0.20025635 -0.1987915 0.3307495q-0.16479492 0.13049316 -0.4293213 0.10140991q-0.20025635 -0.03401184 -0.31530762 -0.19621277q-0.11773682 -0.14678955 -0.099121094 -0.34965515q-0.0049438477 -0.0642395 0.022094727 -0.50341797q0.02960205 -0.45457458 0.07788086 -1.11203q0.048217773 -0.65745544 0.10461426 -1.4561768q0.056396484 -0.79870605 0.12298584 -1.5639954q0.06915283 -0.7806854 0.13018799 -1.4201202q0.06365967 -0.6548462 0.12384033 -1.00914q0.094177246 -0.5545654 0.19439697 -1.4250641q0.10028076 -0.87049866 0.1749878 -1.7770538q0.0927124 -0.9193268 0.13891602 -1.7514648q0.048828125 -0.84754944 0.040161133 -1.3561859q0.03137207 -0.18486023 0.17816162 -0.30256653q0.14935303 -0.13310242 0.4165039 -0.11943054q0.4005127 0.06803894 0.43011475 0.45344543q0.15203857 -0.1485138 0.39093018 -0.1554718q0.030822754 0.0052337646 0.43920898 0.027053833q0.42633057 0.009048462 1.0683594 0.054718018q0.64208984 0.045669556 1.420105 0.1302948q0.7807007 0.069229126 1.5355225 0.19746399q1.4942017 0.25382996 2.3513184 0.52622986q0.8725586 0.27500916 0.9161377 0.29826355q0.38482666 0.16046143 0.28045654 0.6816101q-0.12963867 0.39004517 -0.6687622 0.29844666q-0.35925293 -0.124420166 -0.82366943 -0.28256226q-0.3953247 -0.098846436 -0.97283936 -0.24450684q-0.56207275 -0.14303589 -1.25531 -0.26078796q-0.7085571 -0.12037659 -1.473877 -0.1869812q-0.7626343 -0.08201599 -1.4072876 -0.11228943q-0.6420288 -0.045669556 -1.0684204 -0.05470276q-0.40838623 -0.021835327 -0.45458984 -0.029678345q-0.15405273 -0.026168823 -0.2923584 -0.14476013q-0.0095825195 0.61647034 -0.065979004 1.4151764q-0.056396484 0.7987213 -0.14361572 1.5921936q-0.071777344 0.7960968 -0.16131592 1.5099335q-0.07409668 0.7164612 -0.14996338 1.1631927q0.15667725 0.010757446 0.5342407 0.027359009q0.37750244 0.016586304 0.8782959 0.054107666q0.5161743 0.040145874 1.1221924 0.11138916q0.60601807 0.071258545 1.2454224 0.13233948l0.0154418945 0.002609253zm10.204346 0.4814453q0.7489624 0.3491211 1.2506104 0.9414978q0.51971436 0.5796051 0.8129883 1.2792206q0.2958374 0.68421936 0.38098145 1.3960419q0.10321045 0.6990204 0.0037841797 1.2843933q-0.015686035 0.092422485 -0.028747559 0.16944885q-0.013061523 0.07702637 -0.04156494 0.15142822l-0.05987549 0.25926208q-0.12731934 0.4696808 -0.3112793 0.9931488q-0.184021 0.52345276 -0.58099365 0.9948578q-0.39440918 0.45602417 -1.0556641 0.8033142q-0.66119385 0.34727478 -1.7122192 0.4698639q-0.53448486 0.06768799 -0.96087646 0.058654785q-0.4263916 -0.009033203 -0.78063965 -0.069229126q-0.5545654 -0.094192505 -1.0701904 -0.32443237q-0.5028076 -0.21220398 -1.2390137 -0.54330444q-0.6618042 -0.3026123 -1.086731 -0.78686523q-0.4095459 -0.48164368 -0.64434814 -0.9653168q-0.21948242 -0.48103333 -0.315979 -0.84609985q-0.078430176 -0.3778534 -0.078186035 -0.4729004q0.028808594 -0.16944885 0.15753174 -0.2743683q0.14678955 -0.1177063 0.4371338 -0.14762878q0.16949463 0.028793335 0.29241943 0.14476013q0.122924805 0.115982056 0.14300537 0.2778778l0.065979004 0.26478577q0.05316162 0.2467804 0.2319336 0.5941162q0.17871094 0.34733582 0.4807129 0.71562195q0.30462646 0.35287476 0.8048096 0.5804901q0.6591797 0.31800842 1.1030273 0.50434875q0.44641113 0.17092896 0.89312744 0.24682617q0.5853882 0.09944153 1.4564209 0.009674072q0.80688477 -0.08480835 1.2905273 -0.31962585q0.48620605 -0.25022888 0.76464844 -0.5832977q0.29388428 -0.3304596 0.42871094 -0.75131226q0.15026855 -0.4182434 0.28778076 -0.85450745l0.07788086 -0.27204895l0.028747559 -0.16944885q0.06542969 -0.38510132 3.0517578E-4 -0.9350281q-0.049682617 -0.54730225 -0.2741089 -1.0925903q-0.20892334 -0.5426636 -0.6158447 -1.0397034q-0.3914795 -0.49443054 -0.98150635 -0.7531433q-0.42321777 -0.21452332 -0.87750244 -0.33924866q-0.45166016 -0.14012146 -0.9291992 -0.22125244q-0.970459 -0.16485596 -1.84906 -0.123931885q-0.8760376 0.025527954 -1.418396 0.13941956q-0.0513916 0.022964478 -0.17468262 0.002029419q-0.046203613 -0.007858276 -0.107788086 -0.018325806q-0.046203613 -0.007843018 -0.1875 -0.015991211q-0.20025635 -0.03401184 -0.3307495 -0.19882202q-0.11248779 -0.17759705 -0.10925293 -0.38308716q0.06072998 -0.5444031 0.119140625 -1.1684265q0.061035156 -0.6394348 0.10144043 -1.2506714q0.055786133 -0.6086273 0.085754395 -1.1582489q0.029907227 -0.54963684 0.018310547 -0.9478302q0.02355957 -0.13864136 0.08807373 -0.23861694q0.06713867 -0.11538696 0.18572998 -0.25372314q0.028747559 -0.16944885 0.16015625 -0.28977966q0.14672852 -0.1177063 0.3548584 -0.12989807q0.046203613 0.007858276 0.43914795 0.027053833q0.41101074 0.00642395 1.0222168 0.04685974q0.6112671 0.04045105 1.3585205 0.11984253q0.7498169 0.06399536 1.4738159 0.1869812q1.4172363 0.24075317 2.2435303 0.5079193q0.84173584 0.2697754 0.87249756 0.27500916q0.17706299 0.07762146 0.25610352 0.26538086q0.08166504 0.17236328 0.02178955 0.43162537q-0.16046143 0.3848114 -0.66619873 0.28305054q-0.015380859 -0.002609253 -0.7954712 -0.2619171q-0.78009033 -0.25932312 -2.1048584 -0.484375q-0.5545654 -0.09420776 -1.1477661 -0.14743042q-0.5751953 -0.06600952 -1.1068115 -0.10877991q-0.5315552 -0.042755127 -0.95532227 -0.06719971q-0.4237671 -0.02444458 -0.6754761 -0.035491943q0.0040893555 0.34936523 -0.010192871 0.8065491q-0.01159668 0.44180298 -0.051696777 0.95799255q-0.040161133 0.51620483 -0.08807373 1.0786133q-0.04534912 0.5470123 -0.10614014 1.0914001q0.61938477 -0.10081482 1.4593506 -0.10076904q0.8580322 -0.01272583 1.7976685 0.14689636q0.5237427 0.088974 1.0370483 0.23956299q0.5286865 0.1532135 1.041687 0.3988495z" fill-rule="nonzero"></path><path fill="#000000" fill-opacity="0.0" d="m423.8166 163.10474c-8.202911 26.204437 -7.864197 56.302322 -0.7397156 82.861984c4.250122 15.844223 13.339691 30.870987 13.339691 47.34886" fill-rule="evenodd"></path><path stroke="#595959" stroke-width="4.0" stroke-linejoin="round" stroke-linecap="butt" d="m423.8166 163.10474c-8.202911 26.204437 -7.864197 56.302322 -0.7397156 82.861984c4.250122 15.844223 13.339691 30.870987 13.339691 47.34886" fill-rule="evenodd"></path></g></svg>

